<svg xmlns="http://www.w3.org/2000/svg" id="Слой_1" viewBox="0 0 1090.5 378.7"><style>.st0{fill:#003f75}.st1,.st2{fill:#6d6e71}.st2,.st3,.st4,.st5{fill-rule:evenodd;clip-rule:evenodd}.st3{fill:#00b9e6}.st4{fill:#0069a2}.st5{fill:#fff}</style><path class="st0" d="M651.5 185.9h-46.3v119.2h-12.1V185.9h-46.3v-8.8h104.7v8.8zm95.9 119.2h-76.6v-128h73.3v8.8h-61.2v47.5h57.6v8.8h-57.6v54.1h64.5v8.8zm92.3-115.2c-4.1-2.5-13.5-6.1-26-6.1-22.7 0-30.7 12.3-30.7 22.3 0 13.8 9.4 20.7 29.9 28.2 24 8.6 36.7 18.7 36.7 37.6 0 19.4-16.4 35.1-47.3 35.1-12.9 0-27.5-3.5-35-8.3l4.1-8.8c8.2 4.9 19.7 8.3 31.8 8.3 21.3 0 34-10.3 34-25.3 0-14-8.2-22.4-28.7-29.5-22.9-7.1-37.7-18-37.7-35.7 0-18.9 18-32.5 43.6-32.5 13.7 0 24.2 3 29.3 5.9l-4 8.8zm104.9 0c-4.1-2.5-13.5-6.1-26-6.1-22.7 0-30.7 12.3-30.7 22.3 0 13.8 9.4 20.7 29.9 28.2 24 8.6 36.7 18.7 36.7 37.6 0 19.4-16.4 35.1-47.3 35.1-12.9 0-27.5-3.5-35-8.3l4.1-8.8c8.2 4.9 19.7 8.3 31.8 8.3 21.3 0 34-10.3 34-25.3 0-14-8.2-22.4-28.7-29.5-22.9-7.1-37.7-18-37.7-35.7 0-18.9 18-32.5 43.6-32.5 13.7 0 24.2 3 29.3 5.9l-4 8.8zm145.9 115.2h-12.7l-17.6-43.8h-56.1l-17.4 43.8h-12.3l51.8-128h12.5l51.8 128zm-33.4-52.3l-16.8-41.3c-3.3-8.9-5.7-16.4-7.8-23.8h-.6c-2 7.6-4.5 15-7.6 23.1l-17 42h49.8z"/><path class="st1" d="M1087.7 366.5v-24.1c0-.3 0-.5-.1-.7-.1-.2-.2-.4-.4-.6-.2-.2-.4-.3-.6-.4-.2-.1-.5-.1-.7-.1-.5 0-1 .2-1.4.7l-15.5 19.9v-18.7c0-.5-.2-.9-.5-1.3-.4-.4-.8-.5-1.3-.5s-.9.2-1.3.5c-.4.4-.5.8-.5 1.3v24.1c0 .3 0 .5.1.7.1.2.2.4.4.6.2.2.4.3.6.4.2.1.5.1.7.1.5 0 1-.2 1.4-.6l15.5-19.9v18.7c0 .5.2.9.5 1.3.4.4.8.5 1.3.5s.9-.2 1.3-.5c.3-.5.5-.9.5-1.4zm-53.6.6l4.9-17.8 4.9 17.8c.1.4.3.7.6.9.3.2.7.4 1.1.4.4 0 .7-.1 1-.3.3-.2.6-.5.7-.9l4.9-17.8 5 17.8c.1.3.2.5.4.7.4.4.8.5 1.3.5s.9-.2 1.3-.5c.3-.4.5-.8.5-1.3 0-.2-.1-.5-.1-.7l-6.5-23.7c-.2-.5-.4-.8-.7-1.1-.3-.3-.7-.4-1.1-.4-.5 0-1 .2-1.3.6l-.6.9-4.8 17.5-4.8-17.5c-.2-.5-.4-.8-.7-1.1-.3-.3-.7-.4-1.1-.4-.5 0-1 .2-1.3.6-.2.2-.4.5-.5.9l-6.6 23.7c-.1.3-.1.5-.1.7 0 .5.2.9.5 1.3.4.4.8.5 1.3.5s.9-.2 1.3-.5c.3-.3.4-.6.5-.8zm-29.7-22.8h-6.9v22.2c0 .5-.2.9-.5 1.3-.4.4-.8.5-1.3.5s-.9-.2-1.3-.5c-.4-.4-.5-.8-.5-1.3v-22.2H987c-.5 0-.9-.2-1.3-.5-.4-.4-.5-.8-.5-1.3s.2-.9.5-1.3c.4-.4.8-.5 1.3-.5h17.4c.5 0 .9.2 1.3.5.4.4.5.8.5 1.3s-.2.9-.5 1.3c-.4.3-.8.5-1.3.5zM981 366.5c0 .5-.2.9-.5 1.3-.4.4-.8.5-1.3.5s-.9-.2-1.3-.5c-.4-.4-.5-.8-.5-1.3v-10.2H965v10.2c0 .5-.2.9-.5 1.3-.4.4-.8.5-1.3.5s-.9-.2-1.3-.5c-.4-.4-.5-.8-.5-1.3v-24.1c0-.5.2-.9.5-1.3.4-.4.8-.5 1.3-.5s.9.2 1.3.5c.4.4.5.8.5 1.3v10.2h12.4v-10.2c0-.5.2-.9.5-1.3.4-.4.8-.5 1.3-.5s.9.2 1.3.5c.4.4.5.8.5 1.3v24.1zm-25.7-1.8c.5 0 .9.2 1.3.5.4.4.5.8.5 1.3s-.2.9-.5 1.3c-.4.4-.8.5-1.3.5h-16c-.3 0-.5 0-.7-.1-.2-.1-.4-.2-.6-.4-.2-.2-.3-.4-.4-.6-.1-.2-.1-.5-.1-.7v-24.1c0-.3 0-.5.1-.7.1-.2.2-.4.4-.6.2-.2.4-.3.6-.4.2-.1.5-.1.7-.1h16c.5 0 .9.2 1.3.5.4.4.5.8.5 1.3s-.2.9-.5 1.3c-.4.4-.8.5-1.3.5h-14.2v8.4h10.2c.5 0 .9.2 1.3.5.4.4.5.8.5 1.3s-.2.9-.5 1.3c-.4.4-.8.5-1.3.5h-10.2v8.4h14.2zm-49.2 2.4l4.9-17.8 4.9 17.8c.1.4.3.7.6.9.3.2.7.4 1.1.4.4 0 .7-.1 1-.3.3-.2.6-.5.7-.9l4.9-17.8 5 17.8c.1.3.2.5.4.7.4.4.8.5 1.3.5s.9-.2 1.3-.5c.3-.4.5-.8.5-1.3 0-.2-.1-.5-.1-.7l-6.5-23.7c-.2-.5-.4-.8-.7-1.1-.3-.3-.7-.4-1.1-.4-.5 0-1 .2-1.3.6l-.6.9-4.8 17.5-4.8-17.5c-.2-.5-.4-.8-.7-1.1-.3-.3-.7-.4-1.1-.4-.5 0-1 .2-1.3.6-.2.2-.4.5-.5.9l-6.6 23.7c-.1.3-.1.5-.1.7 0 .5.2.9.5 1.3.4.4.8.5 1.3.5s.9-.2 1.3-.5c.3-.3.4-.6.5-.8zm-15.5-11.2l7.8-14.4c.3-.6.9-.9 1.6-.9.3 0 .5 0 .7.1.2.1.4.2.6.4.2.2.3.4.4.6.1.2.1.5.1.7 0 .3-.1.6-.3.9l-11.8 22c-.6 1-1.4 1.8-2.2 2.3-.9.5-1.9.7-2.9.7-.5 0-1-.1-1.5-.2s-1-.3-1.4-.5c-.4-.2-.7-.5-1-.8-.3-.3-.4-.7-.4-1.1 0-.3 0-.5.1-.7.1-.2.2-.4.4-.6.2-.2.4-.3.6-.4.2-.1.5-.1.7-.1.2 0 .4 0 .6.1l.6.3.6.3c.2.1.4.1.6.1.4 0 .8-.1 1.1-.3.3-.2.6-.5.8-.9l2-3.7-8.9-16.4c-.2-.3-.3-.6-.3-.9 0-.3 0-.5.1-.7.1-.2.2-.4.4-.6.2-.2.4-.3.6-.4.2-.1.5-.1.7-.1.7 0 1.2.3 1.6.9l8 14.3zm-33.7-13.5c0-.5.2-.9.5-1.3.4-.4.8-.5 1.3-.5s.9.2 1.3.5c.4.4.5.8.5 1.3v10.3l11.5-11.5c.4-.4.8-.6 1.3-.6.3 0 .5 0 .7.1.2.1.4.2.6.4.2.2.3.4.4.6.1.2.1.5.1.7 0 .5-.2.9-.5 1.3l-9.1 9.1 9.3 12.6c.2.3.3.7.3 1 0 .2 0 .5-.1.7-.1.2-.2.4-.4.6-.2.2-.3.3-.6.4-.2.1-.5.2-.7.2-.7 0-1.2-.3-1.5-.8l-8.9-12.1-2.4 2.4v8.6c0 .5-.2.9-.5 1.3-.4.4-.8.5-1.3.5s-.9-.2-1.3-.5c-.4-.4-.5-.8-.5-1.3v-24zm-4.3 12c0 3.8-1.4 7.1-4.1 9.8-2.7 2.7-6 4.1-9.8 4.1-3.8 0-7.1-1.4-9.8-4.1-2.7-2.7-4.1-6-4.1-9.8 0-3.8 1.4-7.1 4.1-9.8 2.7-2.7 6-4.1 9.8-4.1 3.8 0 7.1 1.4 9.8 4.1 1.4 1.4 2.4 2.9 3.1 4.5.6 1.6 1 3.4 1 5.3zm-13.9-10.1c-1.4 0-2.7.2-3.9.7-1.2.5-2.3 1.3-3.3 2.3-1 1-1.8 2.1-2.2 3.3-.5 1.2-.7 2.5-.7 3.9 0 2.8 1 5.2 3 7.2s4.4 3 7.2 3 5.2-1 7.2-3 3-4.4 3-7.2-1-5.2-3-7.2c-2.1-2-4.5-3-7.3-3zm-16.3 22.2v5.3c0 .3 0 .5-.1.7-.1.2-.2.4-.4.6-.2.2-.4.3-.6.4-.2.1-.5.1-.7.1s-.5 0-.7-.1c-.2-.1-.4-.2-.6-.4-.2-.2-.3-.4-.4-.6-.1-.2-.1-.5-.1-.7v-3.5h-17.7v3.5c0 .3-.1.5-.1.7-.1.2-.2.4-.4.6-.2.2-.4.3-.6.4-.2.1-.5.1-.7.1-.3 0-.5 0-.7-.1-.2-.1-.4-.2-.6-.4-.2-.2-.3-.4-.4-.6-.1-.2-.1-.5-.1-.7v-5.3c0-.3 0-.5.1-.7.1-.2.2-.4.4-.6.2-.2.4-.3.6-.4.2-.1.5-.1.8-.1l8.9-22.8c.2-.4.4-.8.7-1 .3-.2.7-.3 1-.3.5 0 .9.1 1.1.4.3.3.5.6.6.9l8.9 22.8c.3 0 .5 0 .8.1.2.1.4.2.6.4.2.2.3.4.4.6v.7zm-19.2-1.8h13.3l-6.7-17.1-6.6 17.1zm-21.6 0c.5 0 .9.2 1.3.5.4.4.5.8.5 1.3s-.2.9-.5 1.3c-.4.4-.8.5-1.3.5h-16c-.3 0-.5 0-.7-.1-.2-.1-.4-.2-.6-.4-.2-.2-.3-.4-.4-.6-.1-.2-.1-.5-.1-.7v-24.1c0-.3 0-.5.1-.7.1-.2.2-.4.4-.6.2-.2.4-.3.6-.4.2-.1.5-.1.7-.1h16c.5 0 .9.2 1.3.5.4.4.5.8.5 1.3s-.2.9-.5 1.3c-.4.4-.8.5-1.3.5h-14.2v8.4h10.2c.5 0 .9.2 1.3.5.4.4.5.8.5 1.3s-.2.9-.5 1.3c-.4.4-.8.5-1.3.5h-10.2v8.4h14.2zm-22.1 1.8v-24.1c0-.3 0-.5-.1-.7-.1-.2-.2-.4-.4-.6-.2-.2-.4-.3-.6-.4-.2-.1-.5-.1-.7-.1-.5 0-1 .2-1.4.7l-15.5 19.9v-18.7c0-.5-.2-.9-.5-1.3-.4-.4-.8-.5-1.3-.5s-.9.2-1.3.5c-.4.4-.5.8-.5 1.3v24.1c0 .3 0 .5.1.7.1.2.2.4.4.6.2.2.4.3.6.4.2.1.5.1.7.1.5 0 1-.2 1.4-.6l15.5-19.9v18.7c0 .5.2.9.5 1.3.4.4.8.5 1.3.5s.9-.2 1.3-.5c.3-.5.5-.9.5-1.4zm-26.5 0c0 .5-.2.9-.5 1.3-.4.4-.8.5-1.3.5s-.9-.2-1.3-.5c-.4-.4-.5-.8-.5-1.3v-10.2H717v10.2c0 .5-.2.9-.5 1.3-.4.4-.8.5-1.3.5s-.9-.2-1.3-.5c-.4-.4-.5-.8-.5-1.3v-24.1c0-.5.2-.9.5-1.3.4-.4.8-.5 1.3-.5s.9.2 1.3.5c.4.4.5.8.5 1.3v10.2h12.4v-10.2c0-.5.2-.9.5-1.3.4-.4.8-.5 1.3-.5s.9.2 1.3.5c.4.4.5.8.5 1.3v24.1zm-25.7-1.8c.5 0 .9.2 1.3.5.4.4.5.8.5 1.3s-.2.9-.5 1.3c-.4.4-.8.5-1.3.5h-16c-.3 0-.5 0-.7-.1-.2-.1-.4-.2-.6-.4-.2-.2-.3-.4-.4-.6-.1-.2-.1-.5-.1-.7v-24.1c0-.3 0-.5.1-.7.1-.2.2-.4.4-.6.2-.2.4-.3.6-.4.2-.1.5-.1.7-.1h16c.5 0 .9.2 1.3.5.4.4.5.8.5 1.3s-.2.9-.5 1.3c-.4.4-.8.5-1.3.5h-14.2v8.4h10.2c.5 0 .9.2 1.3.5.4.4.5.8.5 1.3s-.2.9-.5 1.3c-.4.4-.8.5-1.3.5h-10.2v8.4h14.2zm-41 2.5c-.4.8-.9 1.1-1.7 1.1-.3 0-.5 0-.7-.1-.2-.1-.4-.2-.6-.4-.2-.2-.3-.4-.4-.6-.1-.2-.1-.5-.1-.7 0-.2 0-.5.2-.7l9.3-23.9c.4-.9 1-1.3 1.8-1.3s1.4.4 1.8 1.3l9.3 23.9c.1.2.2.5.2.7 0 .3 0 .5-.1.7-.1.2-.2.4-.4.6-.2.2-.4.3-.6.4-.2.1-.5.1-.7.1-.8 0-1.4-.4-1.7-1.1l-7.6-19.7-8 19.7zm-17.4-26.6c1 0 1.9.2 2.8.6.9.4 1.6.9 2.3 1.5.7.7 1.2 1.4 1.5 2.3.4.9.6 1.8.6 2.8 0 1.8-.5 3.3-1.6 4.6.7.4 1.3.9 1.9 1.4.5.5 1 1.1 1.3 1.8.4.6.6 1.3.8 2 .2.7.3 1.4.3 2.2 0 1.2-.2 2.3-.7 3.3-.4 1-1.1 1.9-1.8 2.7-.8.8-1.7 1.4-2.7 1.8-1 .5-2.1.7-3.3.7h-6.7c-.3 0-.5 0-.7-.1-.2-.1-.4-.2-.6-.4-.2-.2-.3-.4-.4-.6-.1-.2-.1-.5-.1-.7v-24.1c0-.3 0-.5.1-.7.1-.2.2-.4.4-.6.2-.2.4-.3.6-.4.2-.1.5-.1.7-.1h5.3zm-3.5 3.7v7h3.5c.5 0 .9-.1 1.4-.3.4-.2.8-.4 1.1-.8.3-.3.6-.7.8-1.1.2-.4.3-.9.3-1.4 0-.5-.1-.9-.3-1.3-.2-.4-.4-.8-.8-1.1-.3-.3-.7-.6-1.1-.8-.4-.2-.9-.3-1.3-.3h-3.6v.1zm0 10.7v9.7h4.9c.7 0 1.3-.1 1.9-.4.6-.3 1.1-.6 1.5-1 .4-.4.8-1 1-1.5.3-.6.4-1.2.4-1.9s-.1-1.3-.4-1.9c-.3-.6-.6-1.1-1-1.5-.4-.4-1-.8-1.5-1-.6-.3-1.2-.4-1.9-.4h-4.9zm-30.1 10.7l9.3-23.8c.4-.8 1-1.3 1.8-1.3s1.4.4 1.8 1.3l9.3 23.9c.1.2.1.5.1.7 0 .5-.2.9-.5 1.3-.4.4-.8.5-1.3.5s-.9-.2-1.3-.5c-.2-.2-.3-.4-.4-.6l-3.2-8.2H622l-3.2 8.2c-.1.2-.2.4-.4.6-.4.4-.8.5-1.3.5s-.9-.2-1.3-.5c-.4-.4-.5-.8-.5-1.3-.2-.3-.1-.6 0-.8zm14-10.4l-3-7.8-3 7.8h6zm-31.8 11.2v-24.1c0-.3 0-.5.1-.7.1-.2.2-.4.4-.6.2-.2.4-.3.6-.4.2-.1.5-.1.7-.1h5.3c.8 0 1.6.1 2.4.3.8.2 1.5.5 2.2.9.7.4 1.3.9 1.9 1.5.6.6 1.1 1.2 1.5 1.9.4.7.7 1.4.9 2.2.2.8.3 1.6.3 2.4 0 2.5-.9 4.7-2.7 6.5-1.8 1.8-4 2.7-6.5 2.7h-3.5v7.5c0 .5-.2.9-.5 1.3-.4.4-.8.5-1.3.5s-.9-.2-1.3-.5c-.4-.4-.5-.8-.5-1.3zm3.6-22.2v11h3.5c.8 0 1.5-.1 2.1-.4.7-.3 1.2-.7 1.7-1.2s.9-1.1 1.2-1.7c.3-.7.4-1.4.4-2.2 0-.8-.1-1.5-.4-2.2-.3-.7-.7-1.3-1.2-1.8s-1.1-.9-1.8-1.2c-.7-.3-1.4-.4-2.1-.4h-3.4zm-9.6-3.7c.3 0 .5 0 .7.1.2.1.4.2.6.4.2.2.3.4.4.6.1.2.1.5.1.7v24.1c0 .3 0 .5-.1.7-.1.2-.2.4-.4.6-.2.2-.4.3-.6.4-.2.1-.5.1-.7.1-.3 0-.5 0-.7-.1-.2-.1-.4-.2-.6-.4-.2-.2-.3-.4-.4-.6-.1-.2-.1-.5-.1-.7v-22.2h-12.4v22.2c0 .3 0 .5-.1.7-.1.2-.2.4-.4.6-.2.2-.4.3-.6.4-.2.1-.5.1-.7.1-.3 0-.5 0-.7-.1-.2-.1-.4-.2-.6-.4-.2-.2-.3-.4-.4-.6-.1-.2-.1-.5-.1-.7v-24.1c0-.3 0-.5.1-.7.1-.2.2-.4.4-.6.2-.2.4-.3.6-.4.2-.1.5-.1.7-.1h16z"/><path class="st2" d="M1019.5 359l3.2 8.2c.1.2.2.4.4.6.3.4.8.5 1.3.5s.9-.2 1.3-.5c.4-.4.5-.8.5-1.3 0-.3 0-.5-.1-.7l-9.3-23.9c-.3-.8-.9-1.3-1.8-1.3-.8 0-1.4.4-1.8 1.3l-9.3 23.8c-.1.3-.2.6-.2.8 0 .5.2.9.5 1.3.4.4.8.5 1.3.5s.9-.2 1.3-.5c.2-.2.3-.4.4-.6l3.2-8.2h9.1zm-4.5-11.5l3 7.8h-6l3-7.8z"/><path class="st1" d="M558.3 355.9l7.8-14.4c.3-.6.9-.9 1.6-.9.3 0 .5 0 .7.1.2.1.4.2.6.4.2.2.3.4.4.6.1.2.1.5.1.7 0 .3-.1.6-.3.9l-11.8 22c-.6 1-1.4 1.8-2.2 2.3-.9.5-1.9.7-2.9.7-.5 0-1-.1-1.5-.2s-1-.3-1.4-.5c-.4-.2-.7-.5-1-.8-.3-.3-.4-.7-.4-1.1 0-.3 0-.5.1-.7.1-.2.2-.4.4-.6.2-.2.4-.3.6-.4.2-.1.5-.1.7-.1.2 0 .4 0 .6.1l.6.3.6.3c.2.1.4.1.6.1.4 0 .8-.1 1.1-.3.3-.2.6-.5.8-.9l2-3.7-8.9-16.4c-.2-.3-.3-.6-.3-.9 0-.3 0-.5.1-.7.1-.2.2-.4.4-.6.2-.2.4-.3.6-.4.2-.1.5-.1.7-.1.7 0 1.2.3 1.6.9l8 14.3z"/><path class="st3" d="M333.5 170.7l-53.6 180.5L104.3 0z"/><path class="st4" d="M333.5 170.7l87.9-4.8-141.5 185.3z"/><path class="st3" d="M333.5 170.7l87.9-4.8 77.4-.6-42.7-39.1zM172 264L2.4 378.7l277.5-27.5z"/><path class="st4" d="M172 264L0 125l181.2 28.9 38.8 77.6z"/><path class="st5" d="M172 264l107.9 87.2L220 231.5z"/></svg>